<?xml version="1.0" standalone="no"?><!DOCTYPE svg PUBLIC "-//W3C//DTD SVG 1.1//EN" "http://www.w3.org/Graphics/SVG/1.1/DTD/svg11.dtd"><svg t="1732538355211" class="icon" viewBox="0 0 1024 1024" version="1.1" xmlns="http://www.w3.org/2000/svg" p-id="17323" xmlns:xlink="http://www.w3.org/1999/xlink" width="200" height="200"><path d="M972.8 455.168a456.704 456.704 0 0 1-396.8 450.56C555.008 908.288 521.216 1024 512 1024s-47.616-115.712-70.656-119.296A457.216 457.216 0 0 1 51.2 455.168 460.8 460.8 0 0 1 512 0a460.8 460.8 0 0 1 460.8 455.168z" fill="#1CBCB4" p-id="17324"></path><path d="M440.32 781.312h-25.088a19.968 19.968 0 0 1-13.824-5.632 17.92 17.92 0 0 1-5.632-13.312V563.2H236.544a31.744 31.744 0 0 1-31.744-32.256V248.832a31.744 31.744 0 0 1 29.184-31.232h384.512a31.744 31.744 0 0 1 31.744 31.232v183.808a196.608 196.608 0 0 0-62.464 0v-27.136h-32.256v37.888a194.56 194.56 0 0 0-63.488 41.472V405.504H460.8v94.208h18.432a182.272 182.272 0 0 0-18.944 204.8v59.392a17.92 17.92 0 0 1-5.632 13.312 19.456 19.456 0 0 1-14.336 4.096zM364.032 405.504v94.208h32.256V405.504z m-95.232 0v94.208h31.744V405.504z m-32.256-156.672V343.04h382.976V248.832z m128 62.976H268.8v-31.744h95.232z" fill="#FFFFFF" p-id="17325"></path><path d="M637.44 806.4a180.224 180.224 0 0 1-181.76-178.688 175.616 175.616 0 0 1 51.2-125.952 183.296 183.296 0 0 1 256 0 176.128 176.128 0 0 1 0 252.416 183.808 183.808 0 0 1-125.44 52.224z m-33.792-99.84h80.384a16.896 16.896 0 0 0 16.896 15.36h8.192a16.896 16.896 0 0 0 16.896-15.36h2.56a17.92 17.92 0 0 0 12.288-5.12 12.8 12.8 0 0 0 4.096-10.752l-4.608-143.872a26.624 26.624 0 0 0-28.16-23.552h-135.68a26.112 26.112 0 0 0-28.16 23.552l-5.12 143.872a14.848 14.848 0 0 0 4.608 10.752 17.92 17.92 0 0 0 12.288 5.12 16.384 16.384 0 0 0 16.384 15.36h8.704a16.896 16.896 0 0 0 16.896-15.36 3.072 3.072 0 0 1 1.536 0z m-26.112-37.888A16.384 16.384 0 0 1 563.2 665.6a13.824 13.824 0 0 1-3.072-10.752 15.36 15.36 0 0 1 12.288-11.264h3.072a16.384 16.384 0 0 1 12.288 5.632 11.776 11.776 0 0 1 2.56 10.752 14.336 14.336 0 0 1-11.776 11.264z m132.608 0a16.384 16.384 0 0 1-12.288-5.632 13.824 13.824 0 0 1-3.072-10.752 14.848 14.848 0 0 1 12.288-11.264h3.072a16.384 16.384 0 0 1 12.288 5.632 11.776 11.776 0 0 1 2.56 10.752 14.336 14.336 0 0 1-11.776 11.264z m-19.968-60.416h-93.184a11.776 11.776 0 0 1-5.632 0 11.264 11.264 0 0 1-7.168-10.752v-17.92c0-10.24 4.096-14.336 14.848-14.336h87.04c10.752 0 14.848 4.096 14.848 14.336v17.92a9.728 9.728 0 0 1-3.072 8.192 13.824 13.824 0 0 1-7.68 2.56z" fill="#FFFFFF" p-id="17326"></path></svg>