<?xml version="1.0" standalone="no"?><!DOCTYPE svg PUBLIC "-//W3C//DTD SVG 1.1//EN" "http://www.w3.org/Graphics/SVG/1.1/DTD/svg11.dtd"><svg t="1732534866847" class="icon" viewBox="0 0 1024 1024" version="1.1" xmlns="http://www.w3.org/2000/svg" p-id="6655" xmlns:xlink="http://www.w3.org/1999/xlink" width="200" height="200"><path d="M512.002408 0C229.232398 0 0 229.232398 0 512.002408c0 282.767602 229.232398 511.997592 512.002408 511.997592 282.771214 0 512.001204-229.22999 512.001204-511.997592C1024.002408 229.232398 794.772418 0 512.002408 0z m-42.966399 269.458157c0-23.175027 19.579442-41.957323 43.74187-41.957323 24.166041 0 43.745483 18.782296 43.745483 41.957323v269.948245c0 23.154557-19.579442 41.930832-43.745483 41.930832-24.162428 0-43.74187-18.77748-43.74187-41.930832V269.458157z m42.968808 527.043418c-148.399166-0.024083-268.658603-115.351331-268.682686-257.69243-0.016858-76.672902 35.152685-145.84276 90.607299-192.90567l0.009634 0.021675c18.076666-15.364925 45.705835-13.761 61.731837 3.582339 16.011552 17.324073 14.351033 43.847835-3.738879 59.203127-37.568205 31.999022-61.108089 78.200966-61.12013 130.099733 0.157743 95.971778 81.13427 173.627265 181.194129 173.7826 100.059859-0.155335 181.024344-77.810822 181.194129-173.7826-0.01445-51.655529-23.33277-97.691301-60.607164-129.675873-18.024887-15.426336-19.599913-41.940465-3.520928-59.219985 16.083801-17.295174 43.737054-18.793134 61.752308-3.370409 55.035572 47.025581 89.876382 115.924506 89.857116 192.266267-0.021675 142.339894-120.281112 257.667143-268.676665 257.691226z" fill="#515151" p-id="6656"></path></svg>